# xmcd CD database file
#
# Track frame offsets:
#	150
#	33489
#	64658
#	104211
#	128553
#
# Disc length: 2033 seconds
#
# Revision: 0
# Processed by: cddbd v1.5.1PL2 Copyright (c) Steve Scherf et al.
# Submitted via: CDex 1.51
#
DISCID=4207ef05
DTITLE=Moksha - Moksha
DYEAR=2005
DGENRE=Jazz
TTITLE0=Jour après jour
TTITLE1=Shibie
TTITLE2=Fiat Lux
TTITLE3=Cachotier
TTITLE4=Souffle
EXTD=YEAR: 2005
EXTT0=
EXTT1=
EXTT2=
EXTT3=
EXTT4=
PLAYORDER=
